<svg width="24" height="32" viewBox="0 0 24 32" fill="none" xmlns="http://www.w3.org/2000/svg">
<path d="M24 8H16V0L24 8ZM16 10H24V29C24 30.6569 22.6569 32 21 32H3C1.34312 32 0 30.6562 0 29V3C0 1.34312 1.34312 0 3 0H14L14.0002 8C14 9.10625 14.8937 10 16 10ZM4 5.5C4 5.77375 4.22688 6 4.5 6H9.5C9.775 6 10 5.77375 10 5.5V4.5C10 4.22688 9.775 4 9.5 4H4.5C4.22688 4 4 4.22688 4 4.5V5.5ZM4.5 10H9.5C9.775 10 10 9.775 10 9.5V8.5C10 8.225 9.775 8 9.5 8H4.5C4.22688 8 4 8.225 4 8.5V9.5C4 9.775 4.22688 10 4.5 10ZM12.3438 19.8L11.9438 19.7C10.5188 19.2625 10.55 19.0062 10.6 18.7812C10.6859 18.293 11.6369 18.1738 12.4919 18.3047C12.8415 18.3574 13.225 18.4804 13.5913 18.6074C14.2406 18.8321 14.9556 18.4863 15.1819 17.8362C15.4084 17.1837 15.0637 16.4712 14.4113 16.2443C13.9601 16.0891 13.5919 15.9894 13.2513 15.9148V15.5C13.2513 14.8106 12.6917 14.25 12.0013 14.25C11.3108 14.25 10.7513 14.8106 10.7513 15.5V15.8745C9.35 16.175 8.3625 17.05 8.1375 18.3563C7.67462 21.0338 10.2119 21.7781 11.295 22.0963L11.6582 22.2017C13.4882 22.7252 13.4582 22.9011 13.4032 23.2192C13.3173 23.7075 12.3664 23.8286 11.5089 23.6958C11.0752 23.6314 10.5207 23.4321 10.0301 23.2564L9.75081 23.1548C9.10019 22.9302 8.38644 23.2681 8.15581 23.9186C7.92631 24.5692 8.26712 25.2836 8.91831 25.5142L9.18494 25.6079C9.66981 25.7822 10.2087 25.9573 10.7512 26.0774V26.5C10.7512 27.1894 11.3107 27.75 12.0012 27.75C12.6916 27.75 13.2512 27.1894 13.2512 26.5V26.1091C14.6487 25.8096 15.6393 24.951 15.8656 23.6448C16.3312 20.9375 13.7375 20.1937 12.3438 19.8Z" fill="url(#paint0_linear_934_17593)"/>
<defs>
<linearGradient id="paint0_linear_934_17593" x1="12" y1="0" x2="12" y2="32" gradientUnits="userSpaceOnUse">
<stop stop-color="#1A91FF"/>
<stop offset="1" stop-color="#232D4E"/>
</linearGradient>
</defs>
</svg>
